<?xml version="1.0" encoding="utf-8"?>
<svg id="master-artboard" viewBox="0 0 1400 980" version="1.1" xmlns="http://www.w3.org/2000/svg" x="0px" y="0px" style="enable-background:new 0 0 1400 980;" width="1400px" height="980px"><rect id="ee-background" x="0" y="0" width="1400" height="980" style="fill: white; fill-opacity: 0; pointer-events: none;"/><defs><style id="ee-google-fonts">@import url(https://fonts.googleapis.com/css?family=Fjalla+One:400|Roboto:100,100italic,300,300italic,400,400italic,500,500italic,700,700italic,900,900italic);</style></defs>







<path d="M 529.200012 100.900002 L 873.200012 100.900002" class="st4" style="fill: rgb(255, 255, 255);" transform="matrix(0.9999999999999999, 0, 0, 0.9999999999999999, 1.8189894035458565e-12, 4.547473508864641e-13)"/>



































<g transform="matrix(0.9999999999999999, 0, 0, 0.9999999999999999, 1.8189894035458565e-12, 4.547473508864641e-13)">
		<path class="st13" d="M448.4,599.9" style="fill: rgb(223, 243, 251);"/>
	</g>





















































<path style="fill: rgb(255, 255, 255); fill-opacity: 0; stroke: rgb(0, 0, 0); stroke-opacity: 1; stroke-width: 0; paint-order: stroke;" d="M 455.48870849609375 321.82598876953125"/><path style="fill: rgb(255, 255, 255); fill-opacity: 0; stroke: rgb(0, 0, 0); stroke-opacity: 1; stroke-width: 0; paint-order: fill;" d="M 482.87860107421875 293.3404846191406"/><g transform="matrix(35.18219408024162, 0, 0, 35.18219408024162, 210.00001253810206, -0.0000041793673517531715)"><g>
	<path d="M27.604,6.751L14.176,20.18c-0.338,0.336-0.885,0.336-1.223,0l-0.27-0.27l0,0l-0.293-0.293l-1.268-1.268l-0.018-0.027&#10;&#9;&#9;L5.297,12.47c-0.336-0.336-0.336-0.885,0-1.221l1.83-1.828c0.338-0.339,0.883-0.339,1.221,0l5.223,5.262L24.551,3.7&#10;&#9;&#9;c0.338-0.337,0.885-0.337,1.221,0l1.832,1.832C27.939,5.867,27.939,6.415,27.604,6.751z" style="fill: rgb(238, 238, 238);"/>
	<path d="M21.795,22.613c0,0.973-0.793,1.766-1.768,1.766H3.535c-0.975,0-1.768-0.793-1.768-1.766V5.241&#10;&#9;&#9;c0-0.973,0.793-1.766,1.768-1.766h16.492c0.975,0,1.768,0.793,1.768,1.766l0,0l1.256-1.162c0.203-1.43-1.242-2.369-3.024-2.369&#10;&#9;&#9;H3.535C1.582,1.71,0,3.29,0,5.241v17.372c0,1.951,1.582,3.533,3.535,3.533h16.492c1.953,0,3.535-1.582,3.535-3.533V12.257&#10;&#9;&#9;l-1.768,1.924L21.795,22.613L21.795,22.613z" style="fill: rgb(238, 238, 238);"/>
	<g>
	</g>
	<g>
	</g>
	<g>
	</g>
	<g>
	</g>
	<g>
	</g>
	<g>
	</g>
	<g>
	</g>
	<g>
	</g>
	<g>
	</g>
	<g>
	</g>
	<g>
	</g>
	<g>
	</g>
	<g>
	</g>
	<g>
	</g>
	<g>
	</g>
</g><g>
</g><g>
</g><g>
</g><g>
</g><g>
</g><g>
</g><g>
</g><g>
</g><g>
</g><g>
</g><g>
</g><g>
</g><g>
</g><g>
</g><g>
</g></g></svg>